<!-- <?xml version="1.0" encoding="utf-8"?> -->
<!-- This svg file is downloaded from wiki and editted by RedBeanN -->
<!-- Source: https://commons.m.wikimedia.org/wiki/File:Blue_Archive_logo.svg -->
<!-- Generator: Adobe Illustrator 27.2.0, SVG Export Plug-In . SVG Version: 6.00 Build 0) -->
<svg viewBox="0 -100 720 480" enable-background="new 0 0 720 480">
  <g id="页面-1">
    <g id="参考">
      <g id="编组">
        <path id="Fill-1" fill-rule="evenodd" clip-rule="evenodd" fill="#128AFA" d="M116.727,102.905h10.535l-8.505,14.731h-10.535
        L116.727,102.905z M103.489,102.905h10.442l-8.505,14.731H94.983L103.489,102.905z M40.514,108.313h57.148l-6.782,11.748h20.976
        c-17.097,28.809-24.793,39.716-33.418,47.547C63.148,181.5,46.801,186.72,18.646,186.72H0l12.38-21.444h17.341
        c17.712,0,21.911-0.652,28.499-4.473c4.676-2.612,7.947-5.687,12.107-11.281c2.553-3.451,6.37-9.418,9.492-14.825
        c0.7-1.212,1.614-2.797,2.813-5.035H28.188L40.514,108.313z" />
        <path id="Fill-3" fill-rule="evenodd" clip-rule="evenodd" fill="#128AFA" d="M157.923,106.914h22.375l-33.589,58.177
        c4.647,0.185,8.831-2.703,12.023-8.391l17.009-29.461h20.977l-17.871,30.952c-9.682,17.902-26.045,28.155-45.04,28.436H111.9
        L157.923,106.914z M127.646,149.988c-9.474,16.409-13.565,21.723-21.5,27.875c-8.856,6.621-18.159,9.977-31.205,11.096
        l12.757-22.096c7.211-1.026,9.647-2.982,14.692-11.561l27.936-48.387h22.188L127.646,149.988z" />
        <polygon id="Fill-5" fill-rule="evenodd" clip-rule="evenodd" fill="#128AFA" points="195.224,136.469 277.917,136.469 
        265.752,157.538 183.058,157.538       " />
        <path id="Fill-7" fill-rule="evenodd" clip-rule="evenodd" fill="#2B2B2B" d="M258.398,169.101c8.296,0,13.026-0.28,16.403-1.121
        c7.896-2.051,13.996-6.805,17.499-13.517l8.72-15.103h19.671c8.592-0.187,12.872-3.075,17.876-11.746h-56.776l11.304-19.58h80.55
        c-11.828,20.325-18.02,29.274-24.384,35.614c-10.676,10.257-22.558,15.01-38.273,15.105c-5.409,9.043-8.871,13.424-14.158,17.9
        c-8.432,7.178-17.523,10.814-30.467,12.4c-4.891,0.56-10.978,0.932-16.76,0.932c-0.465,0-1.863,0-3.208-0.095L258.398,169.101z" />
        <path id="Fill-9" fill-rule="evenodd" clip-rule="evenodd" fill="#2B2B2B" d="M527.864,140.852l60.681-20.325
        c10.475-3.451,12.215-4.847,18.357-14.358h23.027c-12.896,20.884-16.548,23.494-47.443,34.216l-28.1,48.667h-22.745
        l22.662-39.249l-38.979,12.772L527.864,140.852z" />
        <g transform="translate(361.764100, 62.805700)">
          <g id="Clip-12">
          </g>
          <defs>
            <filter id="Adobe_OpacityMaskFilter" filterUnits="userSpaceOnUse" x="230.973" y="40.099" width="127.263" height="83.816">
              <feColorMatrix type="matrix" values="1 0 0 0 0  0 1 0 0 0  0 0 1 0 0  0 0 0 1 0" />
            </filter>
          </defs>
          <mask maskUnits="userSpaceOnUse" x="230.973" y="40.099" width="127.263" height="83.816" id="mask-2_00000013873354943404305750000004271803163206140094_">
            <g filter="url(#Adobe_OpacityMaskFilter)">
              <polygon id="path-1_00000137132101385987679620000012130188838474219437_" fill-rule="evenodd" clip-rule="evenodd" fill="#FFFFFF" points="
              230.973,40.099 358.236,40.099 358.236,123.915 230.973,123.915             " />
            </g>
          </mask>
          <path id="Fill-11" mask="url(#mask-2_00000013873354943404305750000004271803163206140094_)" fill-rule="evenodd" clip-rule="evenodd" fill="#2B2B2B" d="
          M347.701,40.099h10.535l-8.505,14.731h-10.534L347.701,40.099z M334.462,40.099h10.442L336.4,54.831h-10.444L334.462,40.099z
           M271.489,45.508h57.148l-6.783,11.748h20.976c-17.097,28.809-24.793,39.716-33.416,47.547
          c-15.292,13.893-31.639,19.113-59.792,19.113h-18.647l12.38-21.444h17.341c17.713,0,21.911-0.652,28.501-4.473
          c4.675-2.612,7.947-5.687,12.107-11.281c2.551-3.451,6.369-9.418,9.492-14.825c0.7-1.212,1.614-2.797,2.812-5.035h-54.443
          L271.489,45.508z" />
        </g>
        <polygon id="Fill-13" fill-rule="evenodd" clip-rule="evenodd" fill="#2B2B2B" points="383.266,136.469 371.101,157.538 
        430.256,157.538 442.422,136.469       " />
        <path id="Fill-15" fill-rule="evenodd" clip-rule="evenodd" fill="#2B2B2B" d="M474.164,157.225
        c-2.61-0.983-5.207-1.989-7.793-3.01c-3.269-1.306-6.505-2.664-9.728-4.045c-7.566,10.222-14.884,14.251-26.743,15.854
        l-12.973,22.468C442.286,186.016,458.411,177.674,474.164,157.225" />
        <path id="Fill-17" fill-rule="evenodd" clip-rule="evenodd" fill="#2B2B2B" d="M497.727,119.593l8.074-13.984h-22.842
        l-8.073,13.984h-18.554l-4.23,7.329c7.039,5.268,14.001,10.666,20.799,16.34c2.343,1.971,4.673,3.968,6.988,5.989
        c1.92-2.857,3.852-5.898,5.81-9.146h15.942l-9.097,15.757c-0.673,1.165-1.326,2.196-1.976,3.129
        c1.843,1.774,3.664,3.592,5.443,5.474c-2.705-0.726-5.361-1.527-7.992-2.376c-3.01,2.992-6.37,4.027-11.558,4.027l-5.913-0.095
        l-11.951,20.699c19.073-0.093,21.898-0.465,30.418-3.916c11.056-4.943,16.832-10.909,25.968-26.571l21.154-36.641H497.727z" />
        <path id="Fill-19" fill-rule="evenodd" clip-rule="evenodd" fill="#2B2B2B" d="M327.076,114.61
        c-3.241-3.397-6.308-6.945-9.174-10.647c-6.095-7.965-11.258-16.735-14.084-26.089c-1.435-4.648-2.219-9.459-1.96-14.128
        c0-1.175,0.223-2.314,0.346-3.465c0.265-1.117,0.418-2.268,0.816-3.341c0.624-2.2,1.658-4.245,2.874-6.151
        c1.162-1.951,2.751-3.61,4.403-5.179c1.706-1.529,3.634-2.83,5.666-3.978c4.117-2.233,8.738-3.677,13.485-4.576
        c9.536-1.796,19.573-1.496,29.399-0.09c19.724,2.895,38.871,10.049,56.478,19.743c17.559,9.777,33.852,22.206,46.744,37.606
        c6.361,7.712,11.885,16.255,15.082,25.63c0.993,2.92,1.75,5.925,2.14,8.954h3.331c-0.357-3.429-1.137-6.796-2.184-10.04
        c-3.257-10.008-8.887-18.946-15.338-27.015c-13.075-16.091-29.566-29.038-47.407-39.326
        c-17.866-10.265-37.365-18.018-57.956-21.443c-10.29-1.56-20.913-2.107-31.454-0.162c-5.24,1.036-10.46,2.684-15.29,5.351
        c-2.392,1.371-4.696,2.951-6.772,4.843c-2.025,1.932-3.963,4.026-5.412,6.467c-1.461,2.413-2.666,5.01-3.372,7.734
        c-0.442,1.34-0.613,2.733-0.885,4.103c-0.125,1.381-0.334,2.764-0.308,4.142c-0.133,5.535,1.067,10.884,2.828,15.89
        c3.628,10.029,9.619,18.739,16.335,26.555c2.6,3,5.333,5.867,8.174,8.613" />
        <g transform="translate(181.336300, 0.000000)">
          <g id="Clip-22">
          </g>
          <defs>
            <filter id="Adobe_OpacityMaskFilter_00000173858670265103470930000011514781769104750237_" filterUnits="userSpaceOnUse" x="115.777" y="0" width="151.789" height="257.797">
              <feColorMatrix type="matrix" values="1 0 0 0 0  0 1 0 0 0  0 0 1 0 0  0 0 0 1 0" />
            </filter>
          </defs>
          <mask maskUnits="userSpaceOnUse" x="115.777" y="0" width="151.789" height="257.797" id="mask-4_00000080922488106010235430000005359811352370717845_">
            <g filter="url(#Adobe_OpacityMaskFilter_00000173858670265103470930000011514781769104750237_)">
              <polygon id="path-3_00000150078002313277041840000005519839679005798285_" fill-rule="evenodd" clip-rule="evenodd" fill="#FFFFFF" points="
              115.777,0 267.565,0 267.565,257.797 115.777,257.797             " />
            </g>
          </mask>
          <path id="Fill-21" mask="url(#mask-4_00000080922488106010235430000005359811352370717845_)" fill-rule="evenodd" clip-rule="evenodd" fill="#128AFA" d="
          M267.565,0c-10.904,22.511-22.64,44.53-34.67,66.379c-5.936,10.97-12.174,21.762-18.271,32.638l-18.741,32.363l-19.195,32.093
          c-6.559,10.604-12.959,21.302-19.676,31.812c-13.265,21.12-26.831,42.061-41.237,62.512
          c10.894-22.517,22.626-44.54,34.658-66.387c5.931-10.973,12.182-21.759,18.271-32.638l18.752-32.355l19.206-32.088
          c6.554-10.606,12.964-21.297,19.676-31.811C239.61,41.402,253.172,20.456,267.565,0" />
        </g>
        <path id="Fill-23" fill-rule="evenodd" clip-rule="evenodd" fill="#128AFA" d="M494.929,163.919
        c-18.256-9.359-36.19-19.254-54.012-29.338c-8.941-4.992-17.767-10.178-26.646-15.274l-26.464-15.575l-26.291-15.87
        c-8.702-5.394-17.464-10.684-26.106-16.18c-17.346-10.884-34.577-21.96-51.485-33.579c18.259,9.352,36.195,19.245,54.017,29.332
        c8.943,4.989,17.764,10.183,26.646,15.274l26.461,15.583l26.286,15.877c8.704,5.391,17.463,10.689,26.104,16.181
        C460.785,141.235,478.017,152.309,494.929,163.919" />
        <path id="Fill-25" fill-rule="evenodd" clip-rule="evenodd" fill="#2B2B2B" d="M355.327,218.505
        c2.972-0.044,4.155-0.626,5.489-2.857l1.083-1.876c1.013-1.83,0.518-2.366-2.269-2.41h-11.745l-4.124,7.144H355.327z
         M345.336,233.95c4.422,0,5.227-0.313,6.939-2.812l1.443-2.5c1.347-2.41,0.59-3.036-3.803-3.08h-10.227l-4.845,8.392H345.336z
         M364.927,204.35c6.996-0.133,9.293,1.92,7.019,6.252l-3.172,5.49c-1.693,2.856-3.578,4.421-7.293,5.982l-0.051,0.09
        c2.623,1.563,2.767,2.857,0.726,6.474l-3.3,5.713c-1.411,2.368-3.775,4.376-6.636,5.538c-2.395,0.98-3.118,1.07-7.517,1.114
        h-21.924l21.162-36.654H364.927z" />
        <polygon id="Fill-27" fill-rule="evenodd" clip-rule="evenodd" fill="#2B2B2B" points="390.669,204.306 369.481,241.004 
        361.398,241.004 382.585,204.306       " />
        <path id="Fill-29" fill-rule="evenodd" clip-rule="evenodd" fill="#2B2B2B" d="M399.26,213.013l-10.027,17.366
        c-1.887,3.349-1.796,3.885,0.991,3.929h6.477c2.168-0.044,3.167-0.849,5.015-3.973l10.003-17.322h7.77l-11.497,19.909
        c-3.107,5.538-7.05,8.038-12.88,8.083h-11.12c-5.838,0.134-7.009-2.32-3.723-7.858l11.625-20.133H399.26z" />
        <path id="Fill-31" fill-rule="evenodd" clip-rule="evenodd" fill="#2B2B2B" d="M437.269,224.129l0.98-1.696
        c1.191-2.143,0.921-2.679-1.376-2.723h-5.802c-2.753,0.044-3.431,0.446-4.919,2.946l-0.85,1.473H437.269z M421.822,230.157
        l-1.055,1.83c-0.955,1.963-0.449,2.322,2.99,2.322h16.031l-3.865,6.696h-17.371c-7.068,0.179-8.807-2.769-5.197-9.018
        l5.851-10.136c3.421-5.849,7.534-8.795,12.382-8.838h12.19c5.7,0.177,6.513,2.097,3.339,7.901l-5.335,9.243H421.822z" />
        <path id="Fill-33" fill-rule="evenodd" clip-rule="evenodd" fill="#2B2B2B" d="M470.989,225.425l3.77-14.958l-13.191,14.958
        H470.989z M473.111,204.351h10.983l-9.015,36.654h-8.528l2.109-8.527h-13.172l-7.514,8.527h-8.484L473.111,204.351z" />
        <path id="Fill-35" fill-rule="evenodd" clip-rule="evenodd" fill="#2B2B2B" d="M507.061,219.709h-3.841
        c-3.2,0.133-3.939,0.714-6.189,4.688l-9.588,16.607h-8.038l10.698-18.529c3.803-6.741,7.27-9.42,12.297-9.462h8.528
        L507.061,219.709z" />
        <path id="Fill-37" fill-rule="evenodd" clip-rule="evenodd" fill="#2B2B2B" d="M535.817,219.709H523.67
        c-4.086,0.044-4.996,0.534-6.947,3.839l-3.534,6.116c-1.34,2.322-1.76,3.125-1.773,3.305c-0.007,1.249,0.146,1.294,3.424,1.339
        h12.547l-3.865,6.696h-16.925c-5.636-0.134-6.39-2.232-3.088-8.258l6.778-11.743c3.28-5.759,6.564-7.814,12.696-7.991h16.699
        L535.817,219.709z" />
        <path id="Fill-39" fill-rule="evenodd" clip-rule="evenodd" fill="#2B2B2B" d="M549.933,204.306h7.722l-5.001,8.663h11.967
        c5.987,0.223,6.48,2.545,2.214,9.777l-10.54,18.259h-7.725l9.562-16.562c2.351-4.152,2.284-4.734-0.859-4.779h-8.484
        l-12.323,21.341h-7.722L549.933,204.306z" />
        <path id="Fill-41" fill-rule="evenodd" clip-rule="evenodd" fill="#2B2B2B" d="M590.856,205.422l-3.223,5.581h-7.86l3.223-5.581
        H590.856z M578.614,213.013h7.86l-16.162,27.992h-7.86L578.614,213.013z" />
        <polygon id="Fill-43" fill-rule="evenodd" clip-rule="evenodd" fill="#2B2B2B" points="593.096,234.175 611.521,213.013 
        620.318,213.013 594.422,241.005 584.242,241.005 590.981,213.013 599.242,213.013       " />
        <path id="Fill-45" fill-rule="evenodd" clip-rule="evenodd" fill="#2B2B2B" d="M636.536,224.129l0.98-1.696
        c1.191-2.143,0.919-2.679-1.375-2.723h-5.805c-2.749,0.044-3.428,0.446-4.915,2.946l-0.852,1.473H636.536z M621.089,230.157
        l-1.057,1.83c-0.954,1.963-0.447,2.322,2.992,2.322h16.031l-3.867,6.696h-17.371c-7.067,0.179-8.803-2.769-5.197-9.018
        l5.854-10.136c3.419-5.849,7.532-8.795,12.38-8.838h12.19c5.702,0.177,6.513,2.097,3.341,7.901l-5.336,9.243H621.089z" />
      </g>
    </g>
  </g>
</svg>
